<?xml version="1.0" encoding="UTF-8" standalone="no"?><svg xmlns="http://www.w3.org/2000/svg" xmlns:xlink="http://www.w3.org/1999/xlink" contentScriptType="text/ecmascript" zoomAndPan="magnify" contentStyleType="text/css" preserveAspectRatio="xMidYMid meet" version="1.0"><rect x="200" y="100" fill="pink" width="500" height="660" stroke="black" stroke-width="2"/><text fill="black" x="210" y="120">GAB</text><line fill="black" x1="100" x2="270" y1="100" y2="290" stroke="black" stroke-width="1"/><ellipse fill="white" rx="60" cx="270" ry="40" cy="290" stroke="black" stroke-width="2"/><text fill="black" x="230" y="290">retirer argent</text><line fill="black" x1="100" x2="270" y1="100" y2="420" stroke="black" stroke-width="1"/><ellipse fill="white" rx="60" cx="270" ry="40" cy="420" stroke="black" stroke-width="2"/><text fill="black" x="230" y="420">vercer argent</text><circle fill="white" r="18" cx="100" cy="100" stroke="black" stroke-width="2"/><line fill="black" x1="100" x2="100" y1="118" y2="160" stroke="black" stroke-width="2"/><line fill="black" x1="80" x2="120" y1="140" y2="140" stroke="black" stroke-width="2"/><line fill="black" x1="100" x2="120" y1="160" y2="190" stroke="black" stroke-width="2"/><line fill="black" x1="100" x2="80" y1="160" y2="190" stroke="black" stroke-width="2"/><text fill="black" x="80" y="200">Client</text><line fill="black" x1="100" x2="270" y1="280" y2="160" stroke="black" stroke-width="1"/><ellipse fill="white" rx="60" cx="270" ry="40" cy="160" stroke="black" stroke-width="2"/><text fill="black" x="230" y="160">reparer GAB</text><circle fill="white" r="18" cx="100" cy="280" stroke="black" stroke-width="2"/><line fill="black" x1="100" x2="100" y1="298" y2="340" stroke="black" stroke-width="2"/><line fill="black" x1="80" x2="120" y1="320" y2="320" stroke="black" stroke-width="2"/><line fill="black" x1="100" x2="120" y1="340" y2="370" stroke="black" stroke-width="2"/><line fill="black" x1="100" x2="80" y1="340" y2="370" stroke="black" stroke-width="2"/><text fill="black" x="80" y="380">Technicient</text><circle fill="white" r="18" cx="100" cy="100" stroke="black" stroke-width="2"/><line fill="black" x1="100" x2="100" y1="118" y2="160" stroke="black" stroke-width="2"/><line fill="black" x1="80" x2="120" y1="140" y2="140" stroke="black" stroke-width="2"/><line fill="black" x1="100" x2="120" y1="160" y2="190" stroke="black" stroke-width="2"/><line fill="black" x1="100" x2="80" y1="160" y2="190" stroke="black" stroke-width="2"/><text fill="black" x="80" y="200">Client</text><polygon fill="white" stroke-width="2" points="100,203 95,218 105,218" stroke="black"/><line fill="black" x1="100" x2="100" y1="218" y2="330" stroke="black" stroke-width="1"/><circle fill="white" r="18" cx="100" cy="280" stroke="black" stroke-width="2"/><line fill="black" x1="100" x2="100" y1="298" y2="340" stroke="black" stroke-width="2"/><line fill="black" x1="80" x2="120" y1="320" y2="320" stroke="black" stroke-width="2"/><line fill="black" x1="100" x2="120" y1="340" y2="370" stroke="black" stroke-width="2"/><line fill="black" x1="100" x2="80" y1="340" y2="370" stroke="black" stroke-width="2"/><text fill="black" x="80" y="380">Technicient</text><ellipse fill="white" rx="60" cx="270" ry="40" cy="160" stroke="black" stroke-width="2"/><text fill="black" x="230" y="160">reparer GAB</text><ellipse fill="white" rx="60" cx="270" ry="40" cy="290" stroke="black" stroke-width="2"/><text fill="black" x="230" y="290">retirer argent</text><polygon fill="white" stroke-width="2" points="260,335 255,350 265,350" stroke="black"/><line stroke-linecap="round" fill="black" x1="260" x2="260" y1="350" y2="460" stroke-dasharray="1,3,3,3" stroke="black" stroke-width="1"/><text fill="black" x="230" y="370">"extend"</text><ellipse fill="white" rx="60" cx="270" ry="40" cy="290" stroke="black" stroke-width="2"/><text fill="black" x="230" y="290">retirer argent</text><ellipse fill="white" rx="60" cx="270" ry="40" cy="420" stroke="black" stroke-width="2"/><text fill="black" x="230" y="420">vercer argent</text></svg>